<svg xmlns="http://www.w3.org/2000/svg" width="24" height="24" viewBox="0 0 48 48">
  <path fill="#EA4335" d="M24 9.5c3.17 0 5.65 1.37 7.21 2.52l5.36-5.36C33.08 3.05 28.85 1 24 1 14.93 1 7.31 6.82 4.45 14.45l6.85 5.31C12.84 13.08 17.94 9.5 24 9.5z"/>
  <path fill="#34A853" d="M24 46.5c6.23 0 11.45-2.08 15.25-5.64l-7.04-5.77C29.51 37.88 26.94 38.5 24 38.5c-6.02 0-11.12-3.58-13.17-8.74L3.96 35.2C7.13 42.67 14.99 46.5 24 46.5z"/>
  <path fill="#4A90E2" d="M44.5 24c0-1.56-.14-3.04-.39-4.5H24v9h11.63c-1.09 2.88-3.17 5.29-5.92 6.85l7.04 5.77C41.81 37.69 44.5 31.47 44.5 24z"/>
  <path fill="#FBBC05" d="M10.83 29.76C10.31 28.25 10 26.66 10 25c0-1.66.31-3.25.83-4.76L3.96 14.45C2.68 17.35 2 20.59 2 24s.68 6.65 1.96 9.55l6.87-3.79z"/>
</svg>